<svg width="1044" height="1044" viewBox="0 0 1044 1044" fill="none" xmlns="http://www.w3.org/2000/svg">
<rect x="5" y="5" width="1034" height="1034" stroke="white" stroke-width="10"/>
<path d="M100 55L410.84 658.097L366.772 898.269L521.5 989L673.56 898.269L630.252 658.097L943 55L673.56 898.269L630.252 658.097L521.5 804.428L410.84 658.097L366.772 898.269L100 55Z" fill="white"/>
<path d="M224 365L450.289 754.366L421.852 909.423L521.698 968L619.821 909.423L591.875 754.366L816 365L619.821 909.423L591.875 754.366L521.698 838.786L450.289 754.366L421.852 909.423L224 365Z" fill="black"/>
<path d="M432 832L454 844L484.5 852H450.5L432 832Z" fill="white"/>
<path d="M610.5 832L588.5 844L558 852H592L610.5 832Z" fill="white"/>
</svg>
