<svg width="1024" height="1024" viewBox="0 0 1024 1024" fill="none" xmlns="http://www.w3.org/2000/svg">
<path d="M90 45L400.84 648.097L356.772 888.269L511.5 979L663.56 888.269L620.252 648.097L933 45L663.56 888.269L620.252 648.097L511.5 794.428L400.84 648.097L356.772 888.269L90 45Z" fill="white"/>
<path d="M214 355L440.289 744.366L411.852 899.423L511.698 958L609.821 899.423L581.875 744.366L806 355L609.821 899.423L581.875 744.366L511.698 828.786L440.289 744.366L411.852 899.423L214 355Z" fill="black"/>
<path d="M422 822L444 834L474.5 842H440.5L422 822Z" fill="white"/>
<path d="M600.5 822L578.5 834L548 842H582L600.5 822Z" fill="white"/>
</svg>
