<svg width="641" height="321" viewBox="0 0 641 321" fill="none" xmlns="http://www.w3.org/2000/svg">
<path d="M232 229L260.392 284.531L256.367 306.646L270.5 315L284.389 306.646L280.433 284.531L309 229L284.389 306.646L280.433 284.531L270.5 296.571L260.392 284.531L256.367 306.646L232 229Z" fill="white"/>
<path d="M241 252L263 295L260.718 306.171L270.669 312L280.448 306.171L278.5 295L300 252L280.448 306.171L278.5 295L270.669 299.143L263 295L260.718 306.171L241 252Z" fill="black"/>
<path d="M0 0H47.8755L230 159L47.8755 318H0V0Z" fill="white"/>
<mask id="mask0_1544_3296" style="mask-type:alpha" maskUnits="userSpaceOnUse" x="43" y="79" width="121" height="160">
<path d="M43.3711 79.6055H68.2847L163.059 158.953L68.2847 238.301H43.3711V79.6055Z" fill="black"/>
</mask>
<g mask="url(#mask0_1544_3296)">
<path d="M28.0352 51.2695H60.3743L183.397 158.789L60.3743 266.308H28.0352V51.2695Z" fill="#04091F"/>
</g>
<path d="M262 298L264.514 299.2L268 300H264.114L262 298Z" fill="white"/>
<path d="M279 298L276.905 299.2L274 300H277.238L279 298Z" fill="white"/>
<path d="M220.584 275.28V288.72H168.456V275.28H220.584ZM180.744 282L175.944 311.76L168.36 303.216H223.656V318H157.8L163.368 282L157.8 246H223.176V260.784H168.36L175.944 252.24L180.744 282ZM397.079 288.24C396.375 294.448 394.231 299.92 390.647 304.656C387.063 309.328 382.327 312.976 376.439 315.6C370.551 318.224 363.831 319.536 356.279 319.536C348.023 319.536 340.759 317.968 334.487 314.832C328.279 311.696 323.447 307.312 319.991 301.68C316.535 296.048 314.807 289.488 314.807 282C314.807 274.512 316.535 267.952 319.991 262.32C323.447 256.688 328.279 252.304 334.487 249.168C340.759 246.032 348.023 244.464 356.279 244.464C363.831 244.464 370.551 245.776 376.439 248.4C382.327 251.024 387.063 254.672 390.647 259.344C394.231 264.016 396.375 269.488 397.079 275.76H378.839C378.199 272.496 376.887 269.712 374.903 267.408C372.983 265.104 370.423 263.344 367.223 262.128C364.087 260.848 360.439 260.208 356.279 260.208C351.479 260.208 347.351 261.104 343.895 262.896C340.439 264.624 337.783 267.12 335.927 270.384C334.071 273.648 333.143 277.52 333.143 282C333.143 286.48 334.071 290.352 335.927 293.616C337.783 296.88 340.439 299.408 343.895 301.2C347.351 302.928 351.479 303.792 356.279 303.792C360.439 303.792 364.087 303.184 367.223 301.968C370.423 300.752 372.983 298.992 374.903 296.688C376.887 294.384 378.199 291.568 378.839 288.24H397.079ZM416.531 303.504V288.912H466.259V303.504H416.531ZM453.587 246L486.803 318H467.507L438.995 253.584H444.562L416.147 318H396.851L430.067 246H453.587ZM487.115 294.48H505.451C505.771 296.656 506.763 298.576 508.427 300.24C510.091 301.904 512.299 303.184 515.051 304.08C517.867 304.976 521.131 305.424 524.843 305.424C530.155 305.424 534.315 304.688 537.323 303.216C540.395 301.744 541.931 299.664 541.931 296.976C541.931 294.928 541.035 293.36 539.243 292.272C537.515 291.12 534.251 290.288 529.451 289.776L515.531 288.336C505.867 287.376 498.859 285.136 494.507 281.616C490.219 278.096 488.075 273.296 488.075 267.216C488.075 262.416 489.483 258.32 492.299 254.928C495.179 251.536 499.179 248.944 504.299 247.152C509.483 245.36 515.531 244.464 522.443 244.464C529.291 244.464 535.339 245.456 540.587 247.44C545.835 249.424 550.027 252.176 553.163 255.696C556.299 259.216 557.995 263.312 558.251 267.984H539.915C539.659 266.064 538.763 264.432 537.227 263.088C535.755 261.68 533.739 260.592 531.179 259.824C528.683 258.992 525.643 258.576 522.059 258.576C517.259 258.576 513.419 259.28 510.539 260.688C507.723 262.032 506.315 263.984 506.315 266.544C506.315 268.464 507.147 269.968 508.811 271.056C510.539 272.144 513.579 272.944 517.931 273.456L532.619 275.088C539.339 275.792 544.715 276.912 548.747 278.448C552.779 279.984 555.691 282.096 557.483 284.784C559.275 287.472 560.171 290.864 560.171 294.96C560.171 299.888 558.667 304.208 555.659 307.92C552.715 311.568 548.555 314.416 543.179 316.464C537.867 318.512 531.659 319.536 524.555 319.536C517.195 319.536 510.731 318.48 505.163 316.368C499.659 314.256 495.307 311.344 492.107 307.632C488.971 303.856 487.307 299.472 487.115 294.48ZM590.666 253.968H608.81V318H590.666V253.968ZM562.634 246H636.842V262.032H562.634V246Z" fill="white"/>
</svg>
